# xmcd
#
# Track frame offsets: 
#        150
#        15675
#        29590
#        46443
#        62082
#        77865
#        96436
#        112698
#        129479
#        145405
#        160118
#        176738
#        191114
#
# Disc length: 2781 seconds
#
# Revision: 0
# Processed by: cddbd v1.5.2PL0 Copyright (c) Steve Scherf et al.
# Submitted via: ExactAudioCopyFreeDBPlugin 1.0
#
DISCID=b40adb0d
DTITLE=Tonbandgerät - Wenn das Feuerwerk landet
DYEAR=2015
DGENRE=
TTITLE0=Kopfland
TTITLE1=Alles geht
TTITLE2=Ich komm jetzt heim
TTITLE3=Sekundenstill
TTITLE4=Der Fehler in mir
TTITLE5=Jeden Weg
TTITLE6=Lass die Dioden leuchten
TTITLE7=Deine Tasche riecht nach Schwimmbad
TTITLE8=Im Abspann
TTITLE9=Ozean
TTITLE10=Mauern aus Beton
TTITLE11=Für immer da
TTITLE12=Schattenboxer
EXTD=
EXTT0=
EXTT1=
EXTT2=
EXTT3=
EXTT4=
EXTT5=
EXTT6=
EXTT7=
EXTT8=
EXTT9=
EXTT10=
EXTT11=
EXTT12=
PLAYORDER=
